<?xml version="1.0" encoding="UTF-8" standalone="no"?>
<!DOCTYPE svg PUBLIC "-//W3C//DTD SVG 1.1//EN" "http://www.w3.org/Graphics/SVG/1.1/DTD/svg11.dtd">
<svg width="100%" height="100%" viewBox="0 0 800 600" version="1.1" xmlns="http://www.w3.org/2000/svg" xmlns:xlink="http://www.w3.org/1999/xlink" xml:space="preserve" xmlns:serif="http://www.serif.com/" style="fill-rule:evenodd;clip-rule:evenodd;stroke-linejoin:round;stroke-miterlimit:2;">
    <g transform="matrix(0.601078,0,0,0.601078,144.619,149.826)">
        <g transform="matrix(0.645493,-0.58056,0.58056,0.645493,-1839.16,2560.14)">
            <g>
                <path d="M3475.55,-354.122C3498.47,-414.8 3535.14,-473.801 3581.91,-525.265C3729.9,-688.107 4043.97,-700.454 4081.88,-664.595C4121.21,-627.388 4170.79,-317.575 4001.54,-159.476C3950.77,-112.052 3887.16,-61.975 3828.88,-33.248L3844.91,176.287L3846.26,177.51L3852.08,455.664C3818.07,485.423 3734.31,108.586 3630.5,-2.321L3474.55,-148.09C3393.79,-203.692 3302.63,-239.959 3193.22,-264.789C2727.36,-351.464 3155.83,-331.708 3273.93,-350.151L3265.5,-349.985L3475.55,-354.122ZM3647.49,-52.975C3651.22,-57.096 3650.91,-63.482 3646.81,-67.227L3537.45,-167.046C3533.35,-170.791 3526.99,-170.485 3523.27,-166.364L3509.77,-151.43C3506.05,-147.309 3506.35,-140.922 3510.45,-137.177L3619.81,-37.359C3623.92,-33.614 3630.27,-33.919 3634,-38.04L3647.49,-52.975ZM3692.64,-79.57C3696.25,-83.572 3695.95,-89.773 3691.97,-93.409L3561.2,-212.775C3557.22,-216.411 3551.04,-216.115 3547.43,-212.113L3534.32,-197.612C3530.7,-193.611 3531,-187.41 3534.99,-183.774L3665.76,-64.408C3669.74,-60.772 3675.91,-61.068 3679.53,-65.07L3692.64,-79.57ZM3727.44,-109.944C3730.63,-113.478 3730.37,-118.955 3726.85,-122.167L3585.01,-251.639C3581.49,-254.851 3576.04,-254.589 3572.84,-251.054L3561.27,-238.247C3558.07,-234.712 3558.34,-229.235 3561.86,-226.024L3703.7,-96.552C3707.22,-93.34 3712.67,-93.602 3715.86,-97.136L3727.44,-109.944ZM3952.47,-537.319C4068.46,-442.446 4026.82,-311.954 3984.64,-252.406C3951.76,-205.995 3902.42,-184.048 3850.81,-176.925C3790.08,-168.543 3784.85,-156.76 3749.95,-120.553C3746.29,-116.753 3695.3,-170.244 3656.26,-205.653C3620.89,-237.726 3581.13,-271.329 3581.95,-273.14C3584.31,-278.317 3578.24,-269.693 3592.6,-286.54C3602.4,-298.028 3611.38,-297.016 3618.65,-333.684C3624.13,-361.339 3607.16,-436.189 3679.53,-516.767C3749.47,-580.96 3863.51,-610.086 3952.47,-537.319ZM3980.17,-437.212C3971.97,-449.342 3956.6,-463.842 3956.73,-463.53C3960.09,-455.722 3968.41,-443.831 3974.18,-433.293C3980.07,-422.526 3983.38,-413.074 3984.69,-401.539C3987.77,-374.221 3985.53,-359.218 3969.78,-324.043C3966.59,-316.939 3963.26,-310.084 3959.26,-303.891C3955.7,-297.627 3958.87,-303.287 3959.26,-303.891C3960.5,-305.306 3965.9,-307.886 3975.53,-322.358C4001.21,-360.915 3995.11,-415.1 3980.17,-437.212Z" style="fill:#d92626;"/>
            </g>
        </g>
        <g transform="matrix(5.12863,0,0,5.28026,-3309.63,-5650.36)">
            <g transform="matrix(50,0,0,50,640.092,1191.25)">
                <path d="M0.357,-0.219L0.238,-0.219L0.199,-0L0.019,-0L0.146,-0.72L0.451,-0.72C0.526,-0.72 0.58,-0.703 0.612,-0.668C0.635,-0.641 0.647,-0.607 0.647,-0.566C0.647,-0.552 0.646,-0.537 0.643,-0.522L0.623,-0.409C0.613,-0.354 0.584,-0.308 0.535,-0.273C0.486,-0.237 0.427,-0.219 0.357,-0.219ZM0.388,-0.564L0.298,-0.564L0.265,-0.375L0.354,-0.375C0.409,-0.375 0.44,-0.399 0.449,-0.448L0.456,-0.489C0.457,-0.495 0.458,-0.503 0.458,-0.513C0.458,-0.523 0.453,-0.534 0.443,-0.546C0.433,-0.558 0.415,-0.564 0.388,-0.564Z" style="fill:#fff;fill-rule:nonzero;"/>
            </g>
            <g transform="matrix(50,0,0,50,669.492,1191.25)">
                <path d="M0.436,-0.72C0.512,-0.72 0.566,-0.703 0.598,-0.67C0.622,-0.645 0.634,-0.613 0.634,-0.574C0.634,-0.561 0.633,-0.547 0.63,-0.532L0.616,-0.454C0.608,-0.411 0.594,-0.376 0.575,-0.349C0.555,-0.322 0.533,-0.303 0.509,-0.292L0.6,-0L0.398,-0L0.314,-0.269L0.252,-0.269L0.211,-0L0.019,-0L0.146,-0.72L0.436,-0.72ZM0.373,-0.564L0.298,-0.564L0.272,-0.39L0.342,-0.39C0.377,-0.39 0.403,-0.399 0.418,-0.416C0.433,-0.433 0.441,-0.455 0.441,-0.483C0.441,-0.537 0.418,-0.564 0.373,-0.564Z" style="fill:#fff;fill-rule:nonzero;"/>
            </g>
            <g transform="matrix(50,0,0,50,699.542,1191.25)">
                <path d="M0.408,-0.727C0.569,-0.727 0.649,-0.661 0.649,-0.53C0.649,-0.508 0.647,-0.484 0.642,-0.459L0.607,-0.259C0.591,-0.166 0.556,-0.098 0.503,-0.053C0.45,-0.008 0.375,0.014 0.278,0.014C0.181,0.014 0.114,-0.008 0.076,-0.053C0.05,-0.084 0.037,-0.126 0.037,-0.18C0.037,-0.204 0.04,-0.23 0.045,-0.259L0.08,-0.459C0.111,-0.638 0.221,-0.727 0.408,-0.727ZM0.305,-0.141C0.338,-0.141 0.365,-0.15 0.385,-0.167C0.405,-0.184 0.419,-0.216 0.427,-0.263L0.461,-0.455C0.463,-0.468 0.464,-0.48 0.464,-0.491C0.464,-0.545 0.437,-0.572 0.382,-0.572C0.313,-0.571 0.272,-0.532 0.259,-0.455L0.225,-0.263C0.222,-0.246 0.221,-0.229 0.221,-0.211C0.221,-0.164 0.249,-0.141 0.305,-0.141Z" style="fill:#fff;fill-rule:nonzero;"/>
            </g>
            <g transform="matrix(50,0,0,50,730.242,1191.25)">
                <path d="M0.357,-0.219L0.238,-0.219L0.199,-0L0.019,-0L0.146,-0.72L0.451,-0.72C0.526,-0.72 0.58,-0.703 0.612,-0.668C0.635,-0.641 0.647,-0.607 0.647,-0.566C0.647,-0.552 0.646,-0.537 0.643,-0.522L0.623,-0.409C0.613,-0.354 0.584,-0.308 0.535,-0.273C0.486,-0.237 0.427,-0.219 0.357,-0.219ZM0.388,-0.564L0.298,-0.564L0.265,-0.375L0.354,-0.375C0.409,-0.375 0.44,-0.399 0.449,-0.448L0.456,-0.489C0.457,-0.495 0.458,-0.503 0.458,-0.513C0.458,-0.523 0.453,-0.534 0.443,-0.546C0.433,-0.558 0.415,-0.564 0.388,-0.564Z" style="fill:#fff;fill-rule:nonzero;"/>
            </g>
            <g transform="matrix(50,0,0,50,759.642,1191.25)">
                <path d="M0.521,-0L0.019,-0L0.146,-0.72L0.648,-0.72L0.62,-0.564L0.298,-0.564L0.275,-0.429L0.541,-0.429L0.513,-0.273L0.247,-0.273L0.227,-0.156L0.549,-0.156L0.521,-0Z" style="fill:#fff;fill-rule:nonzero;"/>
            </g>
            <g transform="matrix(50,0,0,50,787.992,1191.25)">
                <path d="M0.475,-0L0.019,-0L0.146,-0.72L0.326,-0.72L0.227,-0.156L0.503,-0.156L0.475,-0Z" style="fill:#fff;fill-rule:nonzero;"/>
            </g>
        </g>
        <g transform="matrix(1.77989,0,-0.378328,1.83251,-732.91,-1455.29)">
            <g transform="matrix(50,0,0,50,640.092,1191.25)">
                <path d="M0.747,-0.7L0.747,-0L0.553,-0L0.287,-0.318L0.287,-0L0.057,-0L0.057,-0.7L0.251,-0.7L0.517,-0.382L0.517,-0.7L0.747,-0.7Z" style="fill:#fff;fill-rule:nonzero;"/>
            </g>
            <g transform="matrix(50,0,0,50,682.292,1191.25)">
                <path d="M0.639,-0.178L0.639,-0L0.057,-0L0.057,-0.7L0.626,-0.7L0.626,-0.522L0.289,-0.522L0.289,-0.44L0.585,-0.44L0.585,-0.27L0.289,-0.27L0.289,-0.178L0.639,-0.178Z" style="fill:#fff;fill-rule:nonzero;"/>
            </g>
            <g transform="matrix(50,0,0,50,717.692,1191.25)">
                <path d="M0.5,-0L0.379,-0.187L0.261,-0L-0.008,-0L0.245,-0.353L0.001,-0.7L0.266,-0.7L0.385,-0.524L0.501,-0.7L0.755,-0.7L0.512,-0.362L0.77,-0L0.5,-0Z" style="fill:#fff;fill-rule:nonzero;"/>
            </g>
            <g transform="matrix(50,0,0,50,756.292,1191.25)">
                <path d="M0.209,-0.517L0.004,-0.517L0.004,-0.7L0.65,-0.7L0.65,-0.517L0.445,-0.517L0.445,-0L0.209,-0L0.209,-0.517Z" style="fill:#fff;fill-rule:nonzero;"/>
            </g>
            <g transform="matrix(50,0,0,50,807.992,1191.25)">
                <path d="M0.057,-0.7L0.293,-0.7L0.293,-0.183L0.609,-0.183L0.609,-0L0.057,-0L0.057,-0.7Z" style="fill:#fff;fill-rule:nonzero;"/>
            </g>
            <g transform="matrix(50,0,0,50,840.842,1191.25)">
                <path d="M0.639,-0.178L0.639,-0L0.057,-0L0.057,-0.7L0.626,-0.7L0.626,-0.522L0.289,-0.522L0.289,-0.44L0.585,-0.44L0.585,-0.27L0.289,-0.27L0.289,-0.178L0.639,-0.178Z" style="fill:#fff;fill-rule:nonzero;"/>
            </g>
            <g transform="matrix(50,0,0,50,875.992,1191.25)">
                <path d="M0.805,-0.7L0.509,-0L0.277,-0L-0.019,-0.7L0.235,-0.7L0.402,-0.291L0.573,-0.7L0.805,-0.7Z" style="fill:#fff;fill-rule:nonzero;"/>
            </g>
            <g transform="matrix(50,0,0,50,916.542,1191.25)">
                <path d="M0.639,-0.178L0.639,-0L0.057,-0L0.057,-0.7L0.626,-0.7L0.626,-0.522L0.289,-0.522L0.289,-0.44L0.585,-0.44L0.585,-0.27L0.289,-0.27L0.289,-0.178L0.639,-0.178Z" style="fill:#fff;fill-rule:nonzero;"/>
            </g>
            <g transform="matrix(50,0,0,50,952.192,1191.25)">
                <path d="M0.057,-0.7L0.293,-0.7L0.293,-0.183L0.609,-0.183L0.609,-0L0.057,-0L0.057,-0.7Z" style="fill:#fff;fill-rule:nonzero;"/>
            </g>
            <g transform="matrix(50,0,0,50,1002.04,1191.25)">
                <path d="M1.196,-0.7L0.972,-0L0.719,-0L0.606,-0.374L0.487,-0L0.234,-0L0.01,-0.7L0.253,-0.7L0.375,-0.302L0.504,-0.7L0.721,-0.7L0.843,-0.297L0.972,-0.7L1.196,-0.7Z" style="fill:#fff;fill-rule:nonzero;"/>
            </g>
            <g transform="matrix(50,0,0,50,1063.59,1191.25)">
                <path d="M0.639,-0.178L0.639,-0L0.057,-0L0.057,-0.7L0.626,-0.7L0.626,-0.522L0.289,-0.522L0.289,-0.44L0.585,-0.44L0.585,-0.27L0.289,-0.27L0.289,-0.178L0.639,-0.178Z" style="fill:#fff;fill-rule:nonzero;"/>
            </g>
            <g transform="matrix(50,0,0,50,1099.24,1191.25)">
                <path d="M0.617,-0.366C0.658,-0.351 0.69,-0.328 0.713,-0.299C0.736,-0.27 0.747,-0.234 0.747,-0.193C0.747,-0.132 0.722,-0.084 0.671,-0.051C0.62,-0.017 0.547,-0 0.451,-0L0.057,-0L0.057,-0.7L0.431,-0.7C0.524,-0.7 0.595,-0.683 0.643,-0.65C0.69,-0.617 0.714,-0.572 0.714,-0.517C0.714,-0.484 0.706,-0.455 0.69,-0.429C0.673,-0.403 0.649,-0.382 0.617,-0.366ZM0.289,-0.535L0.289,-0.431L0.399,-0.431C0.45,-0.431 0.476,-0.448 0.476,-0.483C0.476,-0.518 0.45,-0.535 0.399,-0.535L0.289,-0.535ZM0.431,-0.165C0.483,-0.165 0.509,-0.183 0.509,-0.22C0.509,-0.257 0.483,-0.275 0.431,-0.275L0.289,-0.275L0.289,-0.165L0.431,-0.165Z" style="fill:#fff;fill-rule:nonzero;"/>
            </g>
        </g>
    </g>
</svg>
